<?xml version="1.0" standalone="no"?>
<!DOCTYPE svg PUBLIC "-//W3C//DTD SVG 20010904//EN"
 "http://www.w3.org/TR/2001/REC-SVG-20010904/DTD/svg10.dtd">
<svg version="1.0" xmlns="http://www.w3.org/2000/svg"
 width="938.000000pt" height="602.000000pt" viewBox="0 0 938.000000 602.000000"
 preserveAspectRatio="xMidYMid meet">

<g transform="translate(0.000000,602.000000) scale(0.100000,-0.100000)"
fill="#000000" stroke="none">
<path d="M0 3010 l0 -3010 4690 0 4690 0 0 3010 0 3010 -4690 0 -4690 0 0
-3010z m6418 1247 c48 -34 72 -79 72 -135 0 -51 -12 -84 -42 -112 -30 -30 -96
-60 -130 -60 -16 0 -28 -6 -28 -13 0 -32 -56 -461 -110 -842 -11 -77 -31 -232
-45 -345 -35 -285 -50 -365 -75 -400 -46 -64 44 -60 -1347 -60 l-1268 0 -36
24 c-50 34 -65 72 -83 206 -8 63 -26 203 -40 310 -14 107 -35 256 -46 330 -11
74 -27 192 -35 261 -8 69 -24 186 -35 260 -10 74 -22 164 -26 202 -7 67 -7 67
-38 67 -44 1 -107 32 -139 69 -69 82 -36 205 68 252 38 18 106 19 1691 16
l1651 -2 41 -28z m-4368 -318 c199 -32 365 -140 463 -301 57 -94 78 -174 84
-313 5 -102 2 -134 -17 -210 -27 -111 -73 -196 -152 -280 -82 -88 -163 -139
-283 -178 -93 -29 -109 -32 -235 -31 -119 1 -145 4 -220 28 -166 54 -318 179
-387 317 -130 262 -85 592 107 786 148 151 397 221 640 182z m5295 -28 c16 -9
38 -32 50 -51 19 -34 20 -53 23 -482 l3 -446 202 -4 c188 -3 204 -5 238 -25
19 -12 41 -34 47 -48 17 -37 15 -102 -5 -136 -33 -56 -52 -59 -380 -59 -269 0
-302 2 -339 19 -75 34 -74 28 -74 617 0 547 1 555 48 597 51 46 125 53 187 18z
m-2420 -2185 c149 -42 221 -106 266 -237 44 -132 5 -295 -91 -382 -93 -83
-189 -114 -387 -124 l-131 -6 -4 -181 c-3 -201 -11 -229 -71 -267 -46 -29
-136 -23 -173 12 -55 52 -54 37 -54 591 0 497 1 514 20 546 12 19 39 42 63 53
39 18 60 19 272 16 177 -3 244 -8 290 -21z"/>
<path d="M3068 4159 c-25 -14 -24 -65 1 -79 13 -6 232 -10 640 -10 l621 0 0
50 0 50 -622 0 c-405 -1 -629 -4 -640 -11z"/>
<path d="M4450 4120 l0 -50 260 0 260 0 0 50 0 50 -260 0 -260 0 0 -50z"/>
<path d="M5090 4120 l0 -50 625 0 c612 0 625 0 645 20 11 11 20 25 20 30 0 6
-9 19 -20 30 -20 20 -33 20 -645 20 l-625 0 0 -50z"/>
<path d="M3260 3922 c0 -16 7 -77 15 -138 16 -120 135 -1015 161 -1214 9 -69
23 -135 31 -147 l13 -23 1235 0 1235 0 14 23 c8 13 25 108 40 227 26 204 53
400 102 758 33 244 64 491 64 520 l0 22 -1455 0 -1455 0 0 -28z m920 -105 c24
-8 41 -23 52 -47 17 -32 18 -82 18 -593 0 -612 0 -611 -59 -641 -25 -13 -71
-16 -266 -16 -250 0 -281 5 -305 49 -6 13 -10 224 -10 608 0 650 -3 623 63
642 48 14 465 12 507 -2z m794 -1 c69 -29 66 3 66 -643 l0 -583 -29 -32 -29
-33 -262 0 -262 0 -29 33 -29 32 0 583 c0 644 -3 614 64 643 45 19 463 20 510
0z m789 3 c75 -20 72 5 75 -621 2 -383 0 -570 -8 -598 -8 -29 -21 -47 -43 -60
-29 -18 -52 -20 -270 -20 -252 0 -283 5 -307 49 -6 13 -10 224 -10 608 0 650
-3 623 63 642 45 13 453 13 500 0z"/>
<path d="M3687 3753 c-4 -3 -7 -62 -7 -130 l0 -123 55 0 55 0 0 130 0 130 -48
0 c-27 0 -52 -3 -55 -7z"/>
<path d="M3860 3630 l0 -131 68 3 67 3 0 125 0 125 -67 3 -68 3 0 -131z"/>
<path d="M4064 3747 c-2 -7 -3 -65 -2 -128 l3 -114 55 0 55 0 3 114 c2 75 -1
118 -9 127 -15 18 -98 19 -105 1z"/>
<path d="M3680 3310 l0 -120 55 0 55 0 0 120 0 120 -55 0 -55 0 0 -120z"/>
<path d="M3860 3310 l0 -121 68 3 67 3 0 115 0 115 -67 3 -68 3 0 -121z"/>
<path d="M4064 3417 c-2 -7 -3 -60 -2 -118 l3 -104 58 -3 57 -3 0 121 0 120
-55 0 c-37 0 -57 -4 -61 -13z"/>
<path d="M3680 2995 l0 -125 55 0 55 0 0 125 0 125 -55 0 -55 0 0 -125z"/>
<path d="M3865 3107 c-3 -7 -4 -62 -3 -123 l3 -109 65 0 65 0 0 120 0 120 -63
3 c-45 2 -64 -1 -67 -11z"/>
<path d="M4065 3107 c-3 -7 -4 -62 -3 -123 l3 -109 55 0 55 0 0 120 0 120 -53
3 c-37 2 -54 -1 -57 -11z"/>
<path d="M3682 2698 l3 -103 53 -3 52 -3 0 105 0 106 -55 0 -56 0 3 -102z"/>
<path d="M3860 2695 l0 -106 68 3 67 3 0 100 0 100 -67 3 -68 3 0 -106z"/>
<path d="M4064 2787 c-3 -8 -4 -54 -2 -103 l3 -89 43 -3 c65 -5 72 6 72 114
l0 94 -55 0 c-37 0 -57 -4 -61 -13z"/>
<path d="M4483 3754 c-10 -4 -13 -40 -13 -130 l0 -125 58 3 57 3 0 125 0 125
-45 2 c-25 1 -51 0 -57 -3z"/>
<path d="M4660 3630 l0 -130 65 0 65 0 0 130 0 130 -65 0 -65 0 0 -130z"/>
<path d="M4860 3630 l0 -130 55 0 55 0 0 124 c0 138 1 136 -71 136 l-39 0 0
-130z"/>
<path d="M4470 3310 l0 -120 60 0 61 0 -3 118 -3 117 -57 3 -58 3 0 -121z"/>
<path d="M4660 3310 l0 -120 65 0 65 0 0 120 0 120 -65 0 -65 0 0 -120z"/>
<path d="M4860 3310 l0 -120 55 0 55 0 0 120 0 120 -55 0 -55 0 0 -120z"/>
<path d="M4472 2998 l3 -123 55 0 55 0 0 120 0 120 -58 3 -58 3 3 -123z"/>
<path d="M4660 2995 l0 -126 63 3 62 3 3 123 3 122 -66 0 -65 0 0 -125z"/>
<path d="M4860 2995 l0 -125 55 0 55 0 0 125 0 125 -55 0 -55 0 0 -125z"/>
<path d="M4470 2700 c0 -96 1 -100 24 -106 13 -3 38 -4 57 -2 l34 3 3 103 3
102 -61 0 -60 0 0 -100z"/>
<path d="M4660 2695 l0 -105 65 0 65 0 0 105 0 105 -65 0 -65 0 0 -105z"/>
<path d="M4860 2695 l0 -105 39 0 c70 0 71 1 71 111 l0 99 -55 0 -55 0 0 -105z"/>
<path d="M5271 3746 c-8 -9 -11 -52 -9 -127 l3 -114 58 -3 57 -3 0 131 0 130
-49 0 c-29 0 -53 -6 -60 -14z"/>
<path d="M5450 3630 l0 -130 65 0 65 0 0 130 0 130 -65 0 -65 0 0 -130z"/>
<path d="M5654 3747 c-2 -7 -3 -65 -2 -128 l3 -114 55 0 55 0 3 108 c3 133 -3
147 -64 147 -28 0 -47 -5 -50 -13z"/>
<path d="M5260 3310 l0 -120 60 0 60 0 0 120 0 120 -60 0 -60 0 0 -120z"/>
<path d="M5450 3310 l0 -120 65 0 65 0 0 120 0 120 -65 0 -65 0 0 -120z"/>
<path d="M5657 3424 c-4 -4 -7 -59 -7 -121 l0 -114 58 3 57 3 0 115 0 115 -50
3 c-28 2 -54 0 -58 -4z"/>
<path d="M5264 3107 c-2 -7 -3 -62 -2 -123 l3 -109 55 0 55 0 3 123 3 122 -56
0 c-37 0 -57 -4 -61 -13z"/>
<path d="M5452 2998 l3 -123 63 -3 62 -3 0 126 0 125 -65 0 -66 0 3 -122z"/>
<path d="M5655 3107 c-3 -7 -4 -62 -3 -123 l3 -109 55 0 55 0 0 120 0 120 -53
3 c-37 2 -54 -1 -57 -11z"/>
<path d="M5260 2714 c0 -112 7 -124 70 -124 l50 0 0 105 0 105 -60 0 -60 0 0
-86z"/>
<path d="M5450 2695 l0 -105 64 0 c35 0 66 4 68 10 2 5 2 52 0 105 l-3 95 -65
0 -64 0 0 -105z"/>
<path d="M5652 2698 l3 -103 47 -3 c61 -4 70 12 66 121 l-3 82 -58 3 -58 3 3
-103z"/>
<path d="M1808 3656 c-137 -49 -214 -145 -239 -296 -23 -135 17 -267 105 -355
93 -93 242 -122 373 -73 81 30 161 112 194 199 34 91 34 227 0 318 -35 91
-112 168 -201 199 -74 25 -173 29 -232 8z"/>
<path d="M4588 1504 c-5 -4 -8 -70 -8 -147 l0 -140 104 6 c147 8 210 43 221
122 10 63 -14 111 -67 135 -46 20 -237 39 -250 24z"/>
</g>
</svg>
